STARTFONT 2.1
COMMENT The X10 name for this font was "/usr/theorem/fonts/galsymbold.onx"
FONT /usr/theorem/fonts/galsymbold.onx.bdf
SIZE 11 75 75
FONTBOUNDINGBOX 12 20 0 0
STARTPROPERTIES 2
FONT_DESCENT 0
FONT_ASCENT 20
ENDPROPERTIES
CHARS 128
STARTCHAR C000
ENCODING 0
SWIDTH 1 0
DWIDTH 12 0
BBX 12 20 0 0
BITMAP
0000
0000
03e0
03e0
0300
0300
0300
0300
0300
4300
6300
7300
3700
1e00
1c00
0000
0000
0000
0000
0000
ENDCHAR
STARTCHAR C001
ENCODING 1
SWIDTH 1 0
DWIDTH 12 0
BBX 12 20 0 0
BITMAP
0000
0600
0700
0d80
3cc0
3ce0
6c60
6c60
6c60
7fe0
7fe0
6c60
6c60
6c60
6c60
0000
0000
0000
0000
0000
ENDCHAR
STARTCHAR C002
ENCODING 2
SWIDTH 1 0
DWIDTH 12 0
BBX 12 20 0 0
BITMAP
0000
0000
7fc0
6c60
6c60
6c60
6c60
6c60
7fc0
7fe0
6c60
6c60
6c60
6c60
7fc0
0000
0000
0000
0000
0000
ENDCHAR
STARTCHAR C003
ENCODING 3
SWIDTH 1 0
DWIDTH 12 0
BBX 12 20 0 0
BITMAP
0000
0000
3fc0
7fe0
6c20
6c00
6c00
6c00
6c00
6c00
6c00
6c00
6c20
7fe0
3fc0
0000
0000
0000
0000
0000
ENDCHAR
STARTCHAR C004
ENCODING 4
SWIDTH 1 0
DWIDTH 12 0
BBX 12 20 0 0
BITMAP
0000
0000
7f00
7fc0
6de0
6c60
6c60
6c60
6c60
6c60
6c60
6c60
6dc0
7f80
7f00
0000
0000
0000
0000
0000
ENDCHAR
STARTCHAR C005
ENCODING 5
SWIDTH 1 0
DWIDTH 12 0
BBX 12 20 0 0
BITMAP
0000
0000
7fe0
7fe0
6c00
6c00
6c00
7f00
7f00
6c00
6c00
6c00
6c00
7fe0
7fe0
0000
0000
0000
0000
0000
ENDCHAR
STARTCHAR C006
ENCODING 6
SWIDTH 1 0
DWIDTH 12 0
BBX 12 20 0 0
BITMAP
0000
0000
7fe0
7fe0
6c00
6c00
6c00
6c00
7f00
7f00
6c00
6c00
6c00
6c00
6c00
0000
0000
0000
0000
0000
ENDCHAR
STARTCHAR C007
ENCODING 7
SWIDTH 1 0
DWIDTH 12 0
BBX 12 20 0 0
BITMAP
0000
0000
3fc0
7fe0
6c60
6c00
6c00
6c00
6c00
6de0
6de0
6c60
6c60
7fe0
3fc0
0000
0000
0000
0000
0000
ENDCHAR
STARTCHAR C010
ENCODING 8
SWIDTH 1 0
DWIDTH 12 0
BBX 12 20 0 0
BITMAP
0000
0000
6c30
6c30
6c30
6c30
6c30
7ff0
7ff0
6c30
6c30
6c30
6c30
6c30
6c30
0000
0000
0000
0000
0000
ENDCHAR
STARTCHAR C011
ENCODING 9
SWIDTH 1 0
DWIDTH 12 0
BBX 12 20 0 0
BITMAP
0000
0000
7fe0
7fe0
1980
1980
1980
1980
1980
1980
1980
1980
1980
7fe0
7fe0
0000
0000
0000
0000
0000
ENDCHAR
STARTCHAR C012
ENCODING 10
SWIDTH 1 0
DWIDTH 12 0
BBX 12 20 0 0
BITMAP
0000
0000
01f0
01f0
01b0
01b0
01b0
01b0
01b0
01b0
61b0
61b0
61b0
7fe0
3fe0
0000
0000
0000
0000
0000
ENDCHAR
STARTCHAR C013
ENCODING 11
SWIDTH 1 0
DWIDTH 12 0
BBX 12 20 0 0
BITMAP
0000
0000
6c60
6ce0
6d80
6f00
6e00
6c00
7c00
7e00
6f00
6d80
6cc0
6c60
6c20
0000
0000
0000
0000
0000
ENDCHAR
STARTCHAR C014
ENCODING 12
SWIDTH 1 0
DWIDTH 12 0
BBX 12 20 0 0
BITMAP
0000
0000
6c00
6c00
6c00
6c00
6c00
6c00
6c00
6c00
6c00
6c00
6c00
7fe0
7fe0
0000
0000
0000
0000
0000
ENDCHAR
STARTCHAR C015
ENCODING 13
SWIDTH 1 0
DWIDTH 12 0
BBX 12 20 0 0
BITMAP
0000
0000
4020
70e0
79e0
6b60
6f60
6c60
6c60
6c60
6c60
6c60
6c60
6c60
6c60
0000
0000
0000
0000
0000
ENDCHAR
STARTCHAR C016
ENCODING 14
SWIDTH 1 0
DWIDTH 12 0
BBX 12 20 0 0
BITMAP
0000
0000
6060
7060
7860
7c60
6e60
6f60
6fe0
6de0
6ce0
6ce0
6c60
6c60
6c60
0000
0000
0000
0000
0000
ENDCHAR
STARTCHAR C017
ENCODING 15
SWIDTH 1 0
DWIDTH 12 0
BBX 12 20 0 0
BITMAP
0000
0000
3fc0
7fe0
6c60
6c60
6c60
6c60
6c60
6c60
6c60
6c60
6c60
7fe0
3fc0
0000
0000
0000
0000
0000
ENDCHAR
STARTCHAR C020
ENCODING 16
SWIDTH 1 0
DWIDTH 12 0
BBX 12 20 0 0
BITMAP
0000
0000
7fc0
7fe0
6c60
6c60
6c60
6c60
7fc0
7fc0
6c00
6c00
6c00
6c00
6c00
0000
0000
0000
0000
0000
ENDCHAR
STARTCHAR C021
ENCODING 17
SWIDTH 1 0
DWIDTH 12 0
BBX 12 20 0 0
BITMAP
0000
0000
0f00
3fc0
6c60
6c60
6c60
6c60
6c60
6c60
6d60
6de0
3cc0
0f40
0760
0000
0000
0000
0000
0000
ENDCHAR
STARTCHAR C022
ENCODING 18
SWIDTH 1 0
DWIDTH 12 0
BBX 12 20 0 0
BITMAP
0000
0000
7fc0
7fe0
6c60
6c60
6c60
7fc0
7fc0
6f80
6d80
6cc0
6cc0
6c60
6c60
0000
0000
0000
0000
0000
ENDCHAR
STARTCHAR C023
ENCODING 19
SWIDTH 1 0
DWIDTH 12 0
BBX 12 20 0 0
BITMAP
0000
0000
3fc0
7fe0
6c20
6c20
6c00
6c00
3fc0
3fe0
0360
0360
4360
7fc0
3fc0
0000
0000
0000
0000
0000
ENDCHAR
STARTCHAR C024
ENCODING 20
SWIDTH 1 0
DWIDTH 12 0
BBX 12 20 0 0
BITMAP
0000
0000
7fe0
7fe0
6660
76e0
76e0
0600
0600
0600
0600
0600
0600
0600
0600
0000
0000
0000
0000
0000
ENDCHAR
STARTCHAR C025
ENCODING 21
SWIDTH 1 0
DWIDTH 12 0
BBX 12 20 0 0
BITMAP
0000
0000
6c60
6c60
6c60
6c60
6c60
6c60
6c60
6c60
6c60
6c60
6c60
3fc0
3fc0
0000
0000
0000
0000
0000
ENDCHAR
STARTCHAR C026
ENCODING 22
SWIDTH 1 0
DWIDTH 12 0
BBX 12 20 0 0
BITMAP
0000
0000
6c60
6c60
6c60
6c60
6cc0
6dc0
6d80
6f00
6e00
6c00
7800
7000
6000
0000
0000
0000
0000
0000
ENDCHAR
STARTCHAR C027
ENCODING 23
SWIDTH 1 0
DWIDTH 12 0
BBX 12 20 0 0
BITMAP
0000
0000
7060
7060
7060
7060
7060
7060
7660
7660
7660
7660
7fe0
39c0
39c0
0000
0000
0000
0000
0000
ENDCHAR
STARTCHAR C030
ENCODING 24
SWIDTH 1 0
DWIDTH 12 0
BBX 12 20 0 0
BITMAP
0000
0000
6060
6060
70c0
30c0
1980
1b00
0e00
0e00
1f00
3b80
71e0
60e0
60e0
0000
0000
0000
0000
0000
ENDCHAR
STARTCHAR C031
ENCODING 25
SWIDTH 1 0
DWIDTH 12 0
BBX 12 20 0 0
BITMAP
0000
0000
6060
6060
6060
70e0
30c0
30c0
1f80
1f80
0600
0600
0600
0600
0600
0000
0000
0000
0000
0000
ENDCHAR
STARTCHAR C032
ENCODING 26
SWIDTH 1 0
DWIDTH 12 0
BBX 12 20 0 0
BITMAP
0000
0000
7fe0
7fe0
01e0
0360
06c0
0d80
1b00
3600
6c00
5800
7000
7fe0
7fe0
0000
0000
0000
0000
0000
ENDCHAR
STARTCHAR C033
ENCODING 27
SWIDTH 1 0
DWIDTH 12 0
BBX 12 20 0 0
BITMAP
0000
0000
0000
0600
0600
0600
0600
0600
7fe0
7fe0
0600
0600
0600
7fe0
7fe0
0000
0000
0000
0000
0000
ENDCHAR
STARTCHAR C034
ENCODING 28
SWIDTH 1 0
DWIDTH 12 0
BBX 12 20 0 0
BITMAP
0000
0000
7fe0
7fe0
0600
0600
0600
0600
7fe0
7fe0
0600
0600
0600
0000
0000
0000
0000
0000
0000
0000
ENDCHAR
STARTCHAR C035
ENCODING 29
SWIDTH 1 0
DWIDTH 12 0
BBX 12 20 0 0
BITMAP
0000
0000
0000
0000
0000
0000
0000
0000
7fe0
7fe0
0060
0060
0060
0000
0000
0000
0000
0000
0000
0000
ENDCHAR
STARTCHAR C036
ENCODING 30
SWIDTH 1 0
DWIDTH 12 0
BBX 12 20 0 0
BITMAP
0000
0000
6000
6000
7fe0
7fe0
6060
6060
6060
6060
7fe0
7fe0
0060
0060
0060
0000
0000
0000
0000
0000
ENDCHAR
STARTCHAR C037
ENCODING 31
SWIDTH 1 0
DWIDTH 12 0
BBX 12 20 0 0
BITMAP
0000
0000
7e60
7e60
0660
0660
0660
0660
7fe0
7fe0
06e0
06c0
0780
7f00
7e00
0000
0000
0000
0000
0000
ENDCHAR
STARTCHAR C040
ENCODING 32
SWIDTH 1 0
DWIDTH 12 0
BBX 12 20 0 0
BITMAP
0000
0000
7fc0
7fc0
6c00
6c00
6c00
6c00
6c00
6c00
6c00
6c00
6c00
6c00
6c00
6c00
7fc0
7fc0
0000
0000
ENDCHAR
STARTCHAR !
ENCODING 33
SWIDTH 1 0
DWIDTH 12 0
BBX 12 20 0 0
BITMAP
07e0
07e0
0600
0600
0600
0600
0600
0600
0600
0600
0600
0600
0600
0600
0600
0600
0600
0600
0600
0600
ENDCHAR
STARTCHAR "
ENCODING 34
SWIDTH 1 0
DWIDTH 12 0
BBX 12 20 0 0
BITMAP
7e00
7e00
0600
0600
0600
0600
0600
0600
0600
0600
0600
0600
0600
0600
0600
0600
0600
0600
0600
0600
ENDCHAR
STARTCHAR #
ENCODING 35
SWIDTH 1 0
DWIDTH 12 0
BBX 12 20 0 0
BITMAP
0600
0600
0600
0600
0600
0600
0600
0600
0600
0600
0600
0600
0600
0600
0600
0600
07e0
07e0
0000
0000
ENDCHAR
STARTCHAR $
ENCODING 36
SWIDTH 1 0
DWIDTH 12 0
BBX 12 20 0 0
BITMAP
0600
0600
0600
0600
0600
0600
0600
0600
0600
0600
0600
0600
0600
0600
0600
0600
7e00
7e00
0000
0000
ENDCHAR
STARTCHAR %
ENCODING 37
SWIDTH 1 0
DWIDTH 12 0
BBX 12 20 0 0
BITMAP
0600
0600
0600
0600
0600
0600
0600
0600
0600
0600
0600
0600
0600
0600
0600
0600
0600
0600
0600
0600
ENDCHAR
STARTCHAR &
ENCODING 38
SWIDTH 1 0
DWIDTH 12 0
BBX 12 20 0 0
BITMAP
0000
0000
7800
7c00
0e00
0600
0700
0700
0700
1f80
1980
30c0
30e0
6060
6060
0000
0000
0000
0000
0000
ENDCHAR
STARTCHAR '
ENCODING 39
SWIDTH 1 0
DWIDTH 12 0
BBX 12 20 0 0
BITMAP
0000
0000
7fc0
7fc0
00c0
00c0
00c0
00c0
7fc0
7fc0
00c0
00c0
00c0
7fc0
7fc0
0000
0000
0000
0000
0000
ENDCHAR
STARTCHAR (
ENCODING 40
SWIDTH 1 0
DWIDTH 12 0
BBX 12 20 0 0
BITMAP
0000
0000
0000
0000
0000
0000
0000
0000
0000
0700
0f00
0c00
0c00
0c00
0c00
0c00
0f00
0700
0000
0000
ENDCHAR
STARTCHAR )
ENCODING 41
SWIDTH 1 0
DWIDTH 12 0
BBX 12 20 0 0
BITMAP
0000
0000
0000
0000
0000
0000
0000
0000
0000
3c00
3e00
0600
0600
0600
0600
0600
3e00
3c00
0000
0000
ENDCHAR
STARTCHAR *
ENCODING 42
SWIDTH 1 0
DWIDTH 12 0
BBX 12 20 0 0
BITMAP
0000
0000
0000
0000
7fe0
7fe0
0600
0600
0600
0600
0600
0600
0600
0600
0600
0000
0000
0000
0000
0000
ENDCHAR
STARTCHAR +
ENCODING 43
SWIDTH 1 0
DWIDTH 12 0
BBX 12 20 0 0
BITMAP
0000
0000
0000
0000
0600
0600
0600
0600
0600
0600
0600
0600
0600
7fe0
7fe0
0000
0000
0000
0000
0000
ENDCHAR
STARTCHAR ,
ENCODING 44
SWIDTH 1 0
DWIDTH 12 0
BBX 12 20 0 0
BITMAP
0000
0000
0000
0000
0000
0000
3fc0
7fe0
6060
6060
6060
6060
6060
6060
6060
0000
0000
0000
0000
0000
ENDCHAR
STARTCHAR -
ENCODING 45
SWIDTH 1 0
DWIDTH 12 0
BBX 12 20 0 0
BITMAP
0000
0000
0000
0000
0000
0000
7fc0
7fe0
0060
0060
0060
0060
7fe0
7fc0
0000
0000
0000
0000
0000
0000
ENDCHAR
STARTCHAR .
ENCODING 46
SWIDTH 1 0
DWIDTH 12 0
BBX 12 20 0 0
BITMAP
0000
0000
0000
0000
0000
0000
6060
6060
6060
6060
6060
6060
6060
7fe0
3fc0
0000
0000
0000
0000
0000
ENDCHAR
STARTCHAR /
ENCODING 47
SWIDTH 1 0
DWIDTH 12 0
BBX 12 20 0 0
BITMAP
0000
0000
0000
1fe0
3fe0
7000
6000
6000
6000
7000
3fe0
1fe0
0000
7fe0
7fe0
0000
0000
0000
0000
0000
ENDCHAR
STARTCHAR 0
ENCODING 48
SWIDTH 1 0
DWIDTH 12 0
BBX 12 20 0 0
BITMAP
3c00
4200
4200
4200
4200
4200
3c00
0000
0000
0000
0000
0000
0000
0000
0000
0000
0000
0000
0000
0000
ENDCHAR
STARTCHAR 1
ENCODING 49
SWIDTH 1 0
DWIDTH 12 0
BBX 12 20 0 0
BITMAP
1000
3000
7000
1000
1000
1000
7c00
0000
0000
0000
0000
0000
0000
0000
0000
0000
0000
0000
0000
0000
ENDCHAR
STARTCHAR 2
ENCODING 50
SWIDTH 1 0
DWIDTH 12 0
BBX 12 20 0 0
BITMAP
3c00
4400
0400
0800
1000
2000
7c00
0000
0000
0000
0000
0000
0000
0000
0000
0000
0000
0000
0000
0000
ENDCHAR
STARTCHAR 3
ENCODING 51
SWIDTH 1 0
DWIDTH 12 0
BBX 12 20 0 0
BITMAP
3c00
4200
0200
1e00
0200
4200
3c00
0000
0000
0000
0000
0000
0000
0000
0000
0000
0000
0000
0000
0000
ENDCHAR
STARTCHAR 4
ENCODING 52
SWIDTH 1 0
DWIDTH 12 0
BBX 12 20 0 0
BITMAP
0c00
1400
2400
4400
7e00
0400
0400
0000
0000
0000
0000
0000
0000
0000
0000
0000
0000
0000
0000
0000
ENDCHAR
STARTCHAR 5
ENCODING 53
SWIDTH 1 0
DWIDTH 12 0
BBX 12 20 0 0
BITMAP
1e00
2000
4000
7c00
0200
0200
7c00
0000
0000
0000
0000
0000
0000
0000
0000
0000
0000
0000
0000
0000
ENDCHAR
STARTCHAR 6
ENCODING 54
SWIDTH 1 0
DWIDTH 12 0
BBX 12 20 0 0
BITMAP
1e00
2000
4000
7c00
4200
4200
3c00
0000
0000
0000
0000
0000
0000
0000
0000
0000
0000
0000
0000
0000
ENDCHAR
STARTCHAR 7
ENCODING 55
SWIDTH 1 0
DWIDTH 12 0
BBX 12 20 0 0
BITMAP
7e00
0200
0400
0800
1000
2000
4000
0000
0000
0000
0000
0000
0000
0000
0000
0000
0000
0000
0000
0000
ENDCHAR
STARTCHAR 8
ENCODING 56
SWIDTH 1 0
DWIDTH 12 0
BBX 12 20 0 0
BITMAP
3800
4400
4400
3800
4400
4400
3800
0000
0000
0000
0000
0000
0000
0000
0000
0000
0000
0000
0000
0000
ENDCHAR
STARTCHAR 9
ENCODING 57
SWIDTH 1 0
DWIDTH 12 0
BBX 12 20 0 0
BITMAP
3c00
4200
4200
3e00
0200
0400
7800
0000
0000
0000
0000
0000
0000
0000
0000
0000
0000
0000
0000
0000
ENDCHAR
STARTCHAR :
ENCODING 58
SWIDTH 1 0
DWIDTH 12 0
BBX 12 20 0 0
BITMAP
0000
0000
0fe0
1fe0
3000
6000
6000
6000
6000
3000
1fe0
0fe0
0000
0000
0000
0000
0000
0000
0000
0000
ENDCHAR
STARTCHAR ;
ENCODING 59
SWIDTH 1 0
DWIDTH 12 0
BBX 12 20 0 0
BITMAP
0000
0000
4020
6060
2040
2040
3fc0
3fc0
30c0
1980
1980
0f00
0f00
0600
0600
0000
0000
0000
0000
0000
ENDCHAR
STARTCHAR <
ENCODING 60
SWIDTH 1 0
DWIDTH 12 0
BBX 12 20 0 0
BITMAP
0000
0000
3fc0
7fe0
6060
6060
6060
6060
6060
6060
6060
6060
6060
6060
6060
0000
0000
0000
0000
0000
ENDCHAR
STARTCHAR =
ENCODING 61
SWIDTH 1 0
DWIDTH 12 0
BBX 12 20 0 0
BITMAP
0000
0000
0000
0000
7fe0
7fe0
0000
7fe0
7fe0
0000
7fe0
7fe0
0000
0000
0000
0000
0000
0000
0000
0000
ENDCHAR
STARTCHAR >
ENCODING 62
SWIDTH 1 0
DWIDTH 12 0
BBX 12 20 0 0
BITMAP
0000
0000
6060
6060
6060
6060
6060
6060
6060
6060
6060
6060
6060
7fe0
3fc0
0000
0000
0000
0000
0000
ENDCHAR
STARTCHAR ?
ENCODING 63
SWIDTH 1 0
DWIDTH 12 0
BBX 12 20 0 0
BITMAP
0000
0000
7fe0
7fe0
7060
3000
1800
0c00
0600
0c00
1800
3000
7060
7fe0
7fe0
0000
0000
0000
0000
0000
ENDCHAR
STARTCHAR @
ENCODING 64
SWIDTH 1 0
DWIDTH 12 0
BBX 12 20 0 0
BITMAP
0000
0000
0000
0000
0000
0000
0000
0000
0000
0000
3000
7000
7000
3000
3000
3000
7800
7800
0000
0000
ENDCHAR
STARTCHAR A
ENCODING 65
SWIDTH 1 0
DWIDTH 12 0
BBX 12 20 0 0
BITMAP
0000
0000
0fe0
1fa0
3180
3180
6180
6180
6180
7f80
7f80
4180
40c0
70c0
3060
0000
0000
0000
0000
0000
ENDCHAR
STARTCHAR B
ENCODING 66
SWIDTH 1 0
DWIDTH 12 0
BBX 12 20 0 0
BITMAP
0000
0000
39c0
7fe0
6660
6660
0c60
0fc0
0fc0
1860
3060
3060
6060
7fc0
3fc0
0000
0000
0000
0000
0000
ENDCHAR
STARTCHAR C
ENCODING 67
SWIDTH 1 0
DWIDTH 12 0
BBX 12 20 0 0
BITMAP
0000
67c0
6fe0
3820
3fe0
3fc0
6000
6000
6000
6000
6000
6000
3020
1fe0
0fc0
0000
0000
0000
0000
0000
ENDCHAR
STARTCHAR D
ENCODING 68
SWIDTH 1 0
DWIDTH 12 0
BBX 12 20 0 0
BITMAP
0000
0000
39c0
7fe0
6660
6660
0c60
0c60
0c60
0c60
38c0
38c0
60c0
7f80
3f00
0000
0000
0000
0000
0000
ENDCHAR
STARTCHAR E
ENCODING 69
SWIDTH 1 0
DWIDTH 12 0
BBX 12 20 0 0
BITMAP
0000
0000
3f80
7e80
6280
6380
6000
6000
7f00
7f00
6000
6000
6020
7fe0
3fc0
0000
0000
0000
0000
0000
ENDCHAR
STARTCHAR F
ENCODING 70
SWIDTH 1 0
DWIDTH 12 0
BBX 12 20 0 0
BITMAP
0000
0000
3fe0
7fe0
6300
6300
0600
0600
0600
7fc0
7fc0
6cc0
6c00
7c00
7c00
0000
0000
0000
0000
0000
ENDCHAR
STARTCHAR G
ENCODING 71
SWIDTH 1 0
DWIDTH 12 0
BBX 12 20 0 0
BITMAP
0000
7800
7820
67e0
7fe0
7e60
0660
0660
0e60
6c60
6cc0
6cc0
78c0
7f80
3f00
0000
0000
0000
0000
0000
ENDCHAR
STARTCHAR H
ENCODING 72
SWIDTH 1 0
DWIDTH 12 0
BBX 12 20 0 0
BITMAP
0000
0000
7860
7c60
0c60
0c60
0c60
0cc0
3fc0
1fc0
30c0
30c0
30c0
30c0
70e0
0000
0000
0000
0000
0000
ENDCHAR
STARTCHAR I
ENCODING 73
SWIDTH 1 0
DWIDTH 12 0
BBX 12 20 0 0
BITMAP
0000
0000
07c0
0fe0
0c60
0c60
0c60
0c60
0c60
6660
6340
63c0
61c0
7f60
3f60
0000
0000
0000
0000
0000
ENDCHAR
STARTCHAR J
ENCODING 74
SWIDTH 1 0
DWIDTH 12 0
BBX 12 20 0 0
BITMAP
0000
0000
0f00
3f80
71c0
60e0
6060
6060
6060
3060
1ec0
0fc0
39c0
3080
3180
3900
1f00
0e00
0000
0000
ENDCHAR
STARTCHAR K
ENCODING 75
SWIDTH 1 0
DWIDTH 12 0
BBX 12 20 0 0
BITMAP
0000
0000
3c60
7860
1860
1860
18c0
18c0
3980
3f00
6300
6300
61c0
61c0
60e0
0000
0000
0000
0000
0000
ENDCHAR
STARTCHAR L
ENCODING 76
SWIDTH 1 0
DWIDTH 12 0
BBX 12 20 0 0
BITMAP
0000
4f80
4fc0
78c0
7fc0
1f80
1800
1800
1800
1800
3800
3c00
7c60
4fe0
7fc0
0000
0000
0000
0000
0000
ENDCHAR
STARTCHAR M
ENCODING 77
SWIDTH 1 0
DWIDTH 12 0
BBX 12 20 0 0
BITMAP
0000
0000
3ec0
7b60
3360
3360
3360
3360
3360
3360
3360
3360
3360
3360
6360
0000
0000
0000
0000
0000
ENDCHAR
STARTCHAR N
ENCODING 78
SWIDTH 1 0
DWIDTH 12 0
BBX 12 20 0 0
BITMAP
0000
0000
39c0
7fe0
6660
0660
0660
0660
0660
0cc0
0cc0
0cc0
0cc0
3ce0
3ce0
0000
0000
0000
0000
0000
ENDCHAR
STARTCHAR O
ENCODING 79
SWIDTH 1 0
DWIDTH 12 0
BBX 12 20 0 0
BITMAP
0000
0000
1fa0
30e0
3fa0
3fe0
6060
6060
6060
6060
6060
6060
39c0
1f80
0f00
0000
0000
0000
0000
0000
ENDCHAR
STARTCHAR P
ENCODING 80
SWIDTH 1 0
DWIDTH 12 0
BBX 12 20 0 0
BITMAP
0000
0000
0fc0
3fe0
7060
7060
7860
4fc0
4fc0
4800
4800
4800
7800
7800
3000
0000
0000
0000
0000
0000
ENDCHAR
STARTCHAR Q
ENCODING 81
SWIDTH 1 0
DWIDTH 12 0
BBX 12 20 0 0
BITMAP
0000
0000
1fa0
30c0
30c0
3fe0
6020
6020
6020
6620
6720
6160
31c0
1fc0
0f60
0000
0000
0000
0000
0000
ENDCHAR
STARTCHAR R
ENCODING 82
SWIDTH 1 0
DWIDTH 12 0
BBX 12 20 0 0
BITMAP
0000
0000
0fc0
3fe0
7060
7860
6c60
6660
6fc0
6f80
69c0
68c0
78c0
3060
3060
0000
0000
0000
0000
0000
ENDCHAR
STARTCHAR S
ENCODING 83
SWIDTH 1 0
DWIDTH 12 0
BBX 12 20 0 0
BITMAP
0000
0000
7f00
7fc0
30c0
3000
1c00
0e00
03c0
3be0
6c60
6c60
6060
7fc0
3fc0
0000
0000
0000
0000
0000
ENDCHAR
STARTCHAR T
ENCODING 84
SWIDTH 1 0
DWIDTH 12 0
BBX 12 20 0 0
BITMAP
0000
0000
3fe0
7fe0
6600
6600
0600
0600
0600
0600
0c00
0c00
4c00
7c00
3000
0000
0000
0000
0000
0000
ENDCHAR
STARTCHAR U
ENCODING 85
SWIDTH 1 0
DWIDTH 12 0
BBX 12 20 0 0
BITMAP
0000
0000
7060
78e0
18c0
18c0
30c0
30c0
30c0
30c0
30c0
30c0
30c0
3fe0
0f60
0000
0000
0000
0000
0000
ENDCHAR
STARTCHAR V
ENCODING 86
SWIDTH 1 0
DWIDTH 12 0
BBX 12 20 0 0
BITMAP
0000
0000
3860
78e0
58c0
18c0
18c0
18c0
1980
1980
1980
1980
1980
1f80
0600
0000
0000
0000
0000
0000
ENDCHAR
STARTCHAR W
ENCODING 87
SWIDTH 1 0
DWIDTH 12 0
BBX 12 20 0 0
BITMAP
0000
0000
6060
70e0
30c0
30c0
30c0
30c0
36c0
36c0
36c0
36c0
3fc0
30c0
30c0
0000
0000
0000
0000
0000
ENDCHAR
STARTCHAR X
ENCODING 88
SWIDTH 1 0
DWIDTH 12 0
BBX 12 20 0 0
BITMAP
0000
0000
3860
7ee0
66c0
06c0
0380
0380
0380
0380
06c0
06c0
0c40
3860
7860
0000
0000
0000
0000
0000
ENDCHAR
STARTCHAR Y
ENCODING 89
SWIDTH 1 0
DWIDTH 12 0
BBX 12 20 0 0
BITMAP
0000
0000
6020
30e0
31c0
3980
1980
0f80
0600
0600
0600
0600
3600
3e00
0e00
0000
0000
0000
0000
0000
ENDCHAR
STARTCHAR Z
ENCODING 90
SWIDTH 1 0
DWIDTH 12 0
BBX 12 20 0 0
BITMAP
0000
0000
7fe0
7fe0
60c0
40c0
0180
0300
0600
0c00
1800
3000
7060
7fe0
7fc0
0000
0000
0000
0000
0000
ENDCHAR
STARTCHAR [
ENCODING 91
SWIDTH 1 0
DWIDTH 12 0
BBX 12 20 0 0
BITMAP
0000
0000
0000
0000
0000
0000
0600
0600
0f00
1980
1980
30c0
30c0
6060
6060
0000
0000
0000
0000
0000
ENDCHAR
STARTCHAR \
ENCODING 92
SWIDTH 1 0
DWIDTH 12 0
BBX 12 20 0 0
BITMAP
0000
0000
0000
0000
0000
0000
6060
6060
30c0
30c0
1980
1980
0f00
0600
0600
0000
0000
0000
0000
0000
ENDCHAR
STARTCHAR ]
ENCODING 93
SWIDTH 1 0
DWIDTH 12 0
BBX 12 20 0 0
BITMAP
0000
0000
6060
7060
7860
7c60
6e60
6f60
6fe0
6de0
6ce0
6c60
6c60
6c60
6c60
0000
0000
0000
0000
0000
ENDCHAR
STARTCHAR ^
ENCODING 94
SWIDTH 1 0
DWIDTH 12 0
BBX 12 20 0 0
BITMAP
0000
0000
07e0
0fc0
0c00
0c00
1800
1fc0
1f80
3000
3000
6000
7f80
7f00
0000
0000
0000
0000
0000
0000
ENDCHAR
STARTCHAR _
ENCODING 95
SWIDTH 1 0
DWIDTH 12 0
BBX 12 20 0 0
BITMAP
0000
0000
0000
0000
0000
0000
0c00
0c00
0c00
1800
3000
3000
3600
3e00
1c00
0000
0000
0000
0000
0000
ENDCHAR
STARTCHAR `
ENCODING 96
SWIDTH 1 0
DWIDTH 12 0
BBX 12 20 0 0
BITMAP
0000
0000
7fc0
7fc0
06c0
06c0
06c0
06c0
06c0
06c0
06c0
06c0
06c0
06c0
06c0
06c0
7fc0
7fc0
0000
0000
ENDCHAR
STARTCHAR a
ENCODING 97
SWIDTH 1 0
DWIDTH 12 0
BBX 12 20 0 0
BITMAP
0000
0000
0000
0000
0000
0000
0000
0000
0000
0000
0060
3e60
7fc0
4100
4100
7fc0
3e60
0060
0000
0000
ENDCHAR
STARTCHAR b
ENCODING 98
SWIDTH 1 0
DWIDTH 12 0
BBX 12 20 0 0
BITMAP
0000
0000
0000
0000
0000
0000
0000
0000
1f00
3f80
3180
3180
7f00
7e00
6300
6300
7e00
7e00
0000
0000
ENDCHAR
STARTCHAR c
ENCODING 99
SWIDTH 1 0
DWIDTH 12 0
BBX 12 20 0 0
BITMAP
0000
0000
0000
0000
0000
0000
4000
4000
7800
7800
4000
4000
7800
3800
6000
6000
3800
3800
0000
0000
ENDCHAR
STARTCHAR d
ENCODING 100
SWIDTH 1 0
DWIDTH 12 0
BBX 12 20 0 0
BITMAP
0000
0000
0000
0000
0000
0000
0000
03c0
0fe0
0c20
0600
0600
3f00
7980
6180
6100
3f00
3e00
0000
0000
ENDCHAR
STARTCHAR e
ENCODING 101
SWIDTH 1 0
DWIDTH 12 0
BBX 12 20 0 0
BITMAP
0000
0000
0000
0000
0000
0000
0000
0000
3e00
7f00
6000
6000
3e00
3e00
6000
6100
7f00
3e00
0000
0000
ENDCHAR
STARTCHAR f
ENCODING 102
SWIDTH 1 0
DWIDTH 12 0
BBX 12 20 0 0
BITMAP
0000
0000
0000
0000
0000
0000
0000
0000
0000
3fc0
7fe0
6660
6660
6660
7fe0
3fc0
0600
0600
0000
0000
ENDCHAR
STARTCHAR g
ENCODING 103
SWIDTH 1 0
DWIDTH 12 0
BBX 12 20 0 0
BITMAP
0000
0000
0000
0000
0000
0000
0000
0000
0000
00c0
61c0
7100
1b00
0e00
0600
0600
0600
0600
0000
0000
ENDCHAR
STARTCHAR h
ENCODING 104
SWIDTH 1 0
DWIDTH 12 0
BBX 12 20 0 0
BITMAP
0000
0000
0000
0000
0000
0000
0000
0000
0000
7700
3f80
3980
3180
6180
6300
6300
6700
6600
0000
0000
ENDCHAR
STARTCHAR i
ENCODING 105
SWIDTH 1 0
DWIDTH 12 0
BBX 12 20 0 0
BITMAP
0000
0000
0000
0000
0000
0000
0000
0000
0000
0c00
0c00
0c00
1c00
3000
3000
3600
3e00
1800
0000
0000
ENDCHAR
STARTCHAR j
ENCODING 106
SWIDTH 1 0
DWIDTH 12 0
BBX 12 20 0 0
BITMAP
0000
0000
0000
0000
0000
0000
0000
0000
0180
3fc0
7fe0
6660
6660
6660
7fe0
3fc0
0c00
0c00
0000
0000
ENDCHAR
STARTCHAR k
ENCODING 107
SWIDTH 1 0
DWIDTH 12 0
BBX 12 20 0 0
BITMAP
0000
0000
0000
0000
0000
0000
0000
0000
0000
0860
3c40
3cc0
0d80
0f00
1f00
7180
60c0
60c0
0000
0000
ENDCHAR
STARTCHAR l
ENCODING 108
SWIDTH 1 0
DWIDTH 12 0
BBX 12 20 0 0
BITMAP
0000
0000
0000
0000
0000
0000
0000
4000
6000
3000
1800
0c00
0e00
0f00
1980
38c0
6060
6020
0000
0000
ENDCHAR
STARTCHAR m
ENCODING 109
SWIDTH 1 0
DWIDTH 12 0
BBX 12 20 0 0
BITMAP
0000
0000
0000
0000
0000
0000
0000
0000
0000
30c0
30c0
30c0
30c0
30c0
3fc0
6f60
6060
6000
0000
0000
ENDCHAR
STARTCHAR n
ENCODING 110
SWIDTH 1 0
DWIDTH 12 0
BBX 12 20 0 0
BITMAP
0000
0000
0000
0000
0000
0000
0000
0000
0000
70c0
30c0
30c0
30c0
30c0
3180
3f00
6000
6000
0000
0000
ENDCHAR
STARTCHAR o
ENCODING 111
SWIDTH 1 0
DWIDTH 12 0
BBX 12 20 0 0
BITMAP
0000
0000
0000
0000
0000
0000
0000
0000
0000
0fc0
1fe0
1860
3060
3040
3fc0
1f80
0000
0000
0000
0000
ENDCHAR
STARTCHAR p
ENCODING 112
SWIDTH 1 0
DWIDTH 12 0
BBX 12 20 0 0
BITMAP
0000
0000
0000
0000
0000
0000
0000
0000
0000
3fe0
7fe0
7180
3180
3180
3180
3180
3180
3180
0000
0000
ENDCHAR
STARTCHAR q
ENCODING 113
SWIDTH 1 0
DWIDTH 12 0
BBX 12 20 0 0
BITMAP
0000
0000
0000
0000
0000
0000
0000
0000
0f00
3fc0
60c0
60c0
7fc0
60c0
60c0
6180
3f80
3e00
0000
0000
ENDCHAR
STARTCHAR r
ENCODING 114
SWIDTH 1 0
DWIDTH 12 0
BBX 12 20 0 0
BITMAP
0000
0000
0000
0000
0000
0000
0000
0000
0000
0000
0f80
1fc0
1860
3060
3060
7fc0
7fc0
6000
0000
0000
ENDCHAR
STARTCHAR s
ENCODING 115
SWIDTH 1 0
DWIDTH 12 0
BBX 12 20 0 0
BITMAP
0000
0000
0000
0000
0000
0000
0000
0000
0000
3fe0
7fc0
6600
6700
6300
6300
7300
3f00
1e00
0000
0000
ENDCHAR
STARTCHAR t
ENCODING 116
SWIDTH 1 0
DWIDTH 12 0
BBX 12 20 0 0
BITMAP
0000
0000
0000
0000
0000
0000
0000
0000
3fe0
3fe0
6300
6300
0300
0300
0600
0600
0c00
0c00
0000
0000
ENDCHAR
STARTCHAR u
ENCODING 117
SWIDTH 1 0
DWIDTH 12 0
BBX 12 20 0 0
BITMAP
0000
0000
0000
0000
0000
0000
0000
0000
0000
3c60
0c60
0c60
3860
3060
3060
30c0
1fc0
0f00
0000
0000
ENDCHAR
STARTCHAR v
ENCODING 118
SWIDTH 1 0
DWIDTH 12 0
BBX 12 20 0 0
BITMAP
0000
0000
0000
0000
0000
0000
0000
0000
0000
0000
1fc0
3fc0
3000
3f00
3f00
3000
3fc0
1fc0
0000
0000
ENDCHAR
STARTCHAR w
ENCODING 119
SWIDTH 1 0
DWIDTH 12 0
BBX 12 20 0 0
BITMAP
0000
0000
0000
0000
0000
0000
0000
0000
0000
0000
30c0
30c0
6060
6060
6660
6660
39c0
39c0
0000
0000
ENDCHAR
STARTCHAR x
ENCODING 120
SWIDTH 1 0
DWIDTH 12 0
BBX 12 20 0 0
BITMAP
0000
0000
0000
0000
0000
0000
0000
0000
0000
7020
78e0
18c0
0fc0
0f00
0f00
3980
70e0
40e0
0000
0000
ENDCHAR
STARTCHAR y
ENCODING 121
SWIDTH 1 0
DWIDTH 12 0
BBX 12 20 0 0
BITMAP
0000
0000
0000
0000
0000
0000
0000
0000
0000
0600
6660
6660
6660
7fe0
7fe0
0600
0600
0600
0000
0000
ENDCHAR
STARTCHAR z
ENCODING 122
SWIDTH 1 0
DWIDTH 12 0
BBX 12 20 0 0
BITMAP
0000
0000
0000
0000
0000
0000
0000
3000
3800
0f00
3f00
3000
3000
3000
0800
0e00
7e00
7800
0000
0000
ENDCHAR
STARTCHAR {
ENCODING 123
SWIDTH 1 0
DWIDTH 12 0
BBX 12 20 0 0
BITMAP
0000
0000
0000
6000
6000
6000
6000
6000
7fe0
7fe0
6000
6000
6000
6000
6000
0000
0000
0000
0000
0000
ENDCHAR
STARTCHAR |
ENCODING 124
SWIDTH 1 0
DWIDTH 12 0
BBX 12 20 0 0
BITMAP
7f00
7f00
0c00
3c00
7c00
6c00
0c00
0c00
0c00
0c00
0c00
0c00
0c00
7f00
7f00
0000
0000
0000
0000
0000
ENDCHAR
STARTCHAR }
ENCODING 125
SWIDTH 1 0
DWIDTH 12 0
BBX 12 20 0 0
BITMAP
0000
0000
0000
6000
6000
6000
7fe0
7fe0
6000
6000
7fe0
7fe0
6000
6000
6000
0000
0000
0000
0000
0000
ENDCHAR
STARTCHAR ~
ENCODING 126
SWIDTH 1 0
DWIDTH 12 0
BBX 12 20 0 0
BITMAP
0020
0020
0020
0fe0
39e0
31e0
6360
6360
6760
6660
6c60
6c60
78c0
3fc0
7f80
4000
4000
0000
0000
0000
ENDCHAR
STARTCHAR C177
ENCODING 127
SWIDTH 1 0
DWIDTH 12 0
BBX 12 20 0 0
BITMAP
0000
0000
0000
1800
1800
1800
3000
3000
3000
3f00
3f80
30c0
70c0
7fc0
7fc0
0000
0000
0000
0000
0000
ENDCHAR
ENDFONT
